<svg width="250" height="250" viewBox="0 0 250 250" fill="none" xmlns="http://www.w3.org/2000/svg">
<path fill-rule="evenodd" clip-rule="evenodd" d="M215.521 129.48L125 174.793V229.168L215.521 183.855V129.48Z" fill="#FF439D"/>
<path fill-rule="evenodd" clip-rule="evenodd" d="M179.375 84.2715V129.48L215.521 111.459V66.1465L179.375 84.2715Z" fill="#FF439D"/>
<path fill-rule="evenodd" clip-rule="evenodd" d="M125 156.667L161.25 138.646V93.334L125 111.459V156.667Z" fill="#FF439D"/>
<path d="M70.6263 48.0215L34.4805 66.1465L70.6263 84.2715L106.876 66.1465L70.6263 48.0215Z" fill="#FF439D"/>
<path fill-rule="evenodd" clip-rule="evenodd" d="M125 20.834L88.75 38.959L125 57.084L179.375 84.2715L215.521 66.1465L125 20.834Z" fill="#FF439D"/>
<path d="M125 75.209L88.75 93.334L125 111.459L161.25 93.334L125 75.209Z" fill="#FF439D"/>
<path d="M88.75 156.25V210.625L125 229.167V174.792L88.75 156.25ZM115.937 210.625L97.8125 201.562V174.792L115.937 183.854V210.625Z" fill="#FF439D"/>
<path d="M34.4805 66.1465V183.855L70.6263 201.98V84.2715L34.4805 66.1465ZM61.668 183.855L43.4388 174.792V70.6257L61.668 79.6882V183.855Z" fill="#FF439D"/>
<path d="M88.75 93.75L125 111.458V156.25L88.75 138.646V93.75ZM115.937 139.063V107.813L97.8125 98.4375V129.688L115.937 139.063Z" fill="#FF439D"/>
</svg>
