<svg width="785" height="250" viewBox="0 0 785 250" fill="none" xmlns="http://www.w3.org/2000/svg">
<path d="M270.658 64.624C278.562 64.016 286.618 63.712 294.826 63.712C303.135 63.712 310.279 65.7387 316.258 69.792C322.338 73.8453 325.378 79.7227 325.378 87.424C325.378 93.2 323.756 98.5707 320.514 103.536C317.372 108.501 313.572 112.251 309.114 114.784C316.308 117.013 322.338 120.864 327.202 126.336C332.066 131.808 334.498 137.939 334.498 144.728C334.498 154.253 331.458 161.499 325.378 166.464C319.399 171.429 311.14 173.912 300.602 173.912C290.164 173.912 280.183 173.507 270.658 172.696V64.624ZM301.514 167.376C308.911 167.376 314.991 165.349 319.754 161.296C324.516 157.141 326.898 151.872 326.898 145.488C326.898 139.104 324.567 133.581 319.906 128.92C315.346 124.259 309.063 121.067 301.058 119.344C297.308 118.533 292.951 118.128 287.986 118.128C283.122 118.128 279.778 118.128 277.954 118.128V166.616C282.412 167.123 290.266 167.376 301.514 167.376ZM318.082 87.272C318.082 81.6987 315.751 77.392 311.09 74.352C306.53 71.312 301.362 69.792 295.586 69.792C289.911 69.792 284.034 69.9947 277.954 70.4V111.896C279.271 111.896 281.754 111.896 285.402 111.896C289.05 111.896 294.42 112.2 301.514 112.808C306.074 110.376 309.975 106.88 313.218 102.32C316.46 97.76 318.082 92.744 318.082 87.272ZM364.428 173V74.808C373.142 74.0987 380.54 73.744 386.62 73.744C395.942 73.744 403.644 76.176 409.724 81.04C415.804 85.8027 418.844 92.6427 418.844 101.56C418.844 107.539 417.121 113.061 413.676 118.128C410.23 123.195 406.329 127.299 401.972 130.44C414.03 146.451 421.478 156.027 424.315 159.168C430.092 165.147 436.374 168.541 443.164 169.352L443.012 174.064C437.337 173.963 432.726 173.152 429.18 171.632C425.633 170.011 422.086 167.325 418.54 163.576C415.094 159.827 407.444 149.744 395.588 133.328C387.38 133.328 379.324 133.075 371.42 132.568V173H364.428ZM391.788 127.552C395.74 127.552 399.996 124.917 404.556 119.648C409.116 114.379 411.396 108.248 411.396 101.256C411.396 94.264 409.014 88.944 404.252 85.296C399.489 81.648 393.308 79.824 385.708 79.824C381.654 79.824 376.892 80.0267 371.42 80.432V126.792C378.716 127.299 385.505 127.552 391.788 127.552ZM456.904 173V74.352H463.896V173H456.904ZM500.396 173V74.352H546.452V80.432H507.388V116.304H542.652V122.232H507.388V166.616H547.972V173H500.396ZM575.951 173V74.352H626.567V80.432H582.943V116.304H622.767V122.232H582.943V173H575.951ZM653.584 173V74.352H660.576V166.616H705.872V173H653.584ZM744.927 173H738.087V137.736L700.847 74.352H709.207L737.935 123.296C740.165 127.755 741.431 130.136 741.735 130.44C742.343 129.123 743.61 126.792 745.535 123.448L774.263 74.352H782.167L744.927 138.04V173Z" fill="url(#paint0_linear_5169_133)"/>
<path fill-rule="evenodd" clip-rule="evenodd" d="M216.115 129.48L125.594 174.793V229.168L216.115 183.855V129.48Z" fill="#FF439D"/>
<path fill-rule="evenodd" clip-rule="evenodd" d="M179.969 84.2715V129.48L216.115 111.459V66.1465L179.969 84.2715Z" fill="#FF439D"/>
<path fill-rule="evenodd" clip-rule="evenodd" d="M125.594 156.667L161.844 138.646V93.334L125.594 111.459V156.667Z" fill="#FF439D"/>
<path d="M71.2201 48.0215L35.0742 66.1465L71.2201 84.2715L107.47 66.1465L71.2201 48.0215Z" fill="#FF439D"/>
<path fill-rule="evenodd" clip-rule="evenodd" d="M125.594 20.834L89.3438 38.959L125.594 57.084L179.969 84.2715L216.115 66.1465L125.594 20.834Z" fill="#FF439D"/>
<path d="M125.594 75.209L89.3438 93.334L125.594 111.459L161.844 93.334L125.594 75.209Z" fill="#FF439D"/>
<path d="M89.3438 156.25V210.625L125.594 229.167V174.792L89.3438 156.25ZM116.531 210.625L98.4062 201.563V174.792L116.531 183.854V210.625Z" fill="#FF439D"/>
<path d="M35.0742 66.1465V183.855L71.22 201.98V84.2715L35.0742 66.1465ZM62.2617 183.855L44.0326 174.792V70.6257L62.2617 79.6882V183.855Z" fill="#FF439D"/>
<path d="M89.3438 93.75L125.594 111.458V156.25L89.3438 138.646V93.75ZM116.531 139.063V107.813L98.4062 98.4375V129.687L116.531 139.063Z" fill="#FF439D"/>
<defs>
<linearGradient id="paint0_linear_5169_133" x1="784.594" y1="125" x2="250.594" y2="125" gradientUnits="userSpaceOnUse">
<stop offset="0.337751" stop-color="#FF1F8B"/>
<stop offset="1" stop-color="#8F00FF"/>
</linearGradient>
</defs>
</svg>
